<?xml version="1.0" encoding="UTF-8" standalone="no"?>
<!-- Generator: Adobe Illustrator 23.0.3, SVG Export Plug-In . SVG Version: 6.00 Build 0)  -->

<svg
   xmlns:dc="http://purl.org/dc/elements/1.1/"
   xmlns:cc="http://creativecommons.org/ns#"
   xmlns:rdf="http://www.w3.org/1999/02/22-rdf-syntax-ns#"
   xmlns:svg="http://www.w3.org/2000/svg"
   xmlns="http://www.w3.org/2000/svg"
   xmlns:sodipodi="http://sodipodi.sourceforge.net/DTD/sodipodi-0.dtd"
   xmlns:inkscape="http://www.inkscape.org/namespaces/inkscape"
   version="1.1"
   id="Art_copy"
   x="0px"
   y="0px"
   viewBox="0 0 1000 344.76616"
   xml:space="preserve"
   sodipodi:docname="Metallica logo.svg"
   width="1000"
   height="344.76617"
   inkscape:version="0.92.2 (5c3e80d, 2017-08-06)"><metadata
     id="metadata1180"><rdf:RDF><cc:Work
         rdf:about=""><dc:format>image/svg+xml</dc:format><dc:type
           rdf:resource="http://purl.org/dc/dcmitype/StillImage" /><dc:title></dc:title></cc:Work></rdf:RDF></metadata><defs
     id="defs1178" /><sodipodi:namedview
     pagecolor="#ffffff"
     bordercolor="#666666"
     borderopacity="1"
     objecttolerance="10"
     gridtolerance="10"
     guidetolerance="10"
     inkscape:pageopacity="0"
     inkscape:pageshadow="2"
     inkscape:window-width="1366"
     inkscape:window-height="705"
     id="namedview1176"
     showgrid="false"
     fit-margin-top="0"
     fit-margin-left="0"
     fit-margin-right="0"
     fit-margin-bottom="0"
     inkscape:zoom="0.88022825"
     inkscape:cx="512.85732"
     inkscape:cy="176.07551"
     inkscape:window-x="-8"
     inkscape:window-y="-8"
     inkscape:window-maximized="1"
     inkscape:current-layer="Art_copy" /><style
     type="text/css"
     id="style1155">
	.st0{fill:#FFFFFF;}
</style><g
     id="g1193"
     transform="scale(2.0235132)"
     style="stroke-width:0.49419001"><path
       style="fill:#000000;stroke-width:0.49419001"
       id="path1157"
       d="m 351.31,52.31 c -5.66,-0.06 -10.18,-3.11 -10.8,-7.84 -0.63,-4.79 3.77,-7.73 9.37,-7.73 2.75,0 6.35,0.57 8.72,1.52 l -1.97,-12.58 c -2.43,-0.57 -5.94,-1.09 -9.3,-1.09 -13.67,0 -24.04,7.05 -22.66,19.89 1.41,12.93 12.6,21.05 28.55,21.06 3.42,0 6.59,-0.54 9.43,-1.52 l -2.17,-13.84 c -1.9,1.3 -5.53,2.17 -9.17,2.13 z"
       class="st0"
       inkscape:connector-curvature="0" /><polygon
       style="fill:#000000;stroke-width:0.49419001"
       id="polygon1159"
       points="173.3,39.4 159.39,39.4 159.91,35.18 173.74,35.18 174.73,25.61 147.21,25.61 141.64,64.53 170.7,64.53 171.78,54.1 157.58,54.1 158.17,49.31 172.28,49.31 "
       class="st0" /><polygon
       style="fill:#000000;stroke-width:0.49419001"
       id="polygon1161"
       points="308.09,64.53 304.87,25.61 319.9,25.61 323.96,64.53 "
       class="st0" /><path
       style="fill:#000000;stroke-width:0.49419001"
       id="path1163"
       d="M 119.95,34.87 145.01,0 C 128.36,13.07 112.42,24.77 97.18,35.12 L 114.81,29.26 0,170.38 l 85.56,-66.62 -23.05,9.9 48.58,-66.26 2.95,8.51 9.32,-8.26 -12.11,35.61 24.75,-17.83 6.95,-46.16 -21.73,19.62 z"
       class="st0"
       inkscape:connector-curvature="0" /><polygon
       style="fill:#000000;stroke-width:0.49419001"
       id="polygon1165"
       points="245.83,25.61 245.76,64.53 273.88,64.53 273.51,54.2 260.23,54.2 259.71,25.61 "
       class="st0" /><path
       style="fill:#000000;stroke-width:0.49419001"
       id="path1167"
       d="m 218.54,25.51 -0.36,0.85 -16.21,38.17 h 14.47 l 1.98,-5.66 h 8.7 l 1.17,5.66 H 243.1 L 232.47,25.51 Z m 3.22,23.76 2.3,-6.68 1.41,6.68 z"
       class="st0"
       inkscape:connector-curvature="0" /><polygon
       style="fill:#000000;stroke-width:0.49419001"
       id="polygon1169"
       points="208.58,35.18 212.79,25.61 178.32,25.61 177.38,35.18 185.33,35.18 182.77,64.53 197.43,64.53 199.41,35.18 "
       class="st0" /><polygon
       style="fill:#000000;stroke-width:0.49419001"
       id="polygon1171"
       points="275.27,25.61 276.84,64.53 304.96,64.53 304.15,54.2 290.87,54.2 289.15,25.61 "
       class="st0" /><path
       style="fill:#000000;stroke-width:0.49419001"
       id="path1173"
       d="m 378.11,26.27 18.96,5.46 C 377.31,20.11 360.83,9.53 347.64,0 l 12.36,17.63 7.84,47.94 21.91,18.99 -9.16,-28.19 16.78,10.24 34.29,47.05 -23.04,-9.9 85.57,66.62 z m -1.57,17.52 -3.29,-10.14 9.9,13.52 z"
       class="st0"
       inkscape:connector-curvature="0" /></g></svg>